<svg width="1200" height="630" viewBox="0 0 1200 630" fill="none" xmlns="http://www.w3.org/2000/svg">
  <rect width="1200" height="630" fill="#1a1a2e"/>
  <rect x="0" y="0" width="1200" height="630" fill="url(#grad)" opacity="0.5"/>

  <!-- Logo -->
  <g transform="translate(80, 200) scale(2.5)">
    <path fill-rule="evenodd" clip-rule="evenodd" d="M27.8658 32.3631L35.312 38.3541C35.9435 38.8622 36.7599 38.956 37.4899 38.6082C38.2225 38.258 38.659 37.5624 38.659 36.7534V5.19765C38.659 4.06554 37.7341 3.14062 36.602 3.14062H6.34608C5.21398 3.14062 4.28906 4.06554 4.28906 5.19765V36.746C4.28906 37.5575 4.72809 38.253 5.45816 38.6033C6.19069 38.9535 7.00462 38.8573 7.63603 38.3492L15.1044 32.3261C15.3141 32.156 15.467 31.9784 15.6002 31.7441C15.8246 31.3494 15.9554 30.8981 15.9603 30.4171C15.9726 29.5415 15.5731 28.7572 14.9441 28.2417C14.9318 28.2318 14.9195 28.222 14.9071 28.2121C12.4012 26.2537 10.7906 23.2052 10.7906 19.7818C10.7906 13.882 15.5731 9.09957 21.4728 9.09957C26.7485 9.09957 31.129 12.9226 31.9971 17.9492H25.9913C25.2662 16.1635 23.5175 14.9056 21.4703 14.9056C18.777 14.9056 16.5942 17.0884 16.5942 19.7818C16.5942 22.4751 18.777 24.6579 21.4703 24.6579C23.5175 24.6579 25.2711 23.3951 25.9938 21.6069H31.9971C31.5408 24.2608 30.1054 26.5793 28.0755 28.1825C27.4194 28.6832 26.9952 29.4651 26.9829 30.348C26.9755 30.9129 27.1382 31.4407 27.4293 31.8871C27.5526 32.077 27.6858 32.2225 27.8634 32.3656" fill="#5955EF"/>
  </g>

  <!-- Text -->
  <text x="210" y="270" font-family="system-ui, -apple-system, sans-serif" font-size="72" font-weight="800" fill="white">Certicar</text>
  <text x="80" y="360" font-family="system-ui, -apple-system, sans-serif" font-size="36" font-weight="500" fill="rgba(255,255,255,0.7)">Centre d'inspection automobile n°1</text>
  <text x="80" y="410" font-family="system-ui, -apple-system, sans-serif" font-size="36" font-weight="500" fill="rgba(255,255,255,0.7)">en Ile-de-France</text>

  <!-- Tags -->
  <rect x="80" y="460" rx="20" ry="20" width="200" height="40" fill="#5955EF"/>
  <text x="130" y="487" font-family="system-ui, -apple-system, sans-serif" font-size="18" font-weight="600" fill="white">400+ points</text>

  <rect x="300" y="460" rx="20" ry="20" width="200" height="40" fill="#5955EF"/>
  <text x="348" y="487" font-family="system-ui, -apple-system, sans-serif" font-size="18" font-weight="600" fill="white">25+ photos</text>

  <rect x="520" y="460" rx="20" ry="20" width="240" height="40" fill="#5955EF"/>
  <text x="556" y="487" font-family="system-ui, -apple-system, sans-serif" font-size="18" font-weight="600" fill="white">Score A à E</text>

  <!-- Accent line -->
  <rect x="0" y="620" width="1200" height="10" fill="#5955EF"/>

  <defs>
    <linearGradient id="grad" x1="0" y1="0" x2="1200" y2="630">
      <stop offset="0%" stop-color="#5955EF" stop-opacity="0.3"/>
      <stop offset="100%" stop-color="#1a1a2e" stop-opacity="0"/>
    </linearGradient>
  </defs>
</svg>
